<svg xmlns="http://www.w3.org/2000/svg" width="1000" height="620" viewBox="0 0 1000 620">
<rect width="100%" height="100%" fill="white"/>
<style>text{font-family:Arial,sans-serif;fill:#222}.grid{stroke:#ddd;stroke-width:1}.axis{stroke:#222;stroke-width:1.5}.series{fill:none;stroke-width:3}.point{stroke:white;stroke-width:1.5}</style>
<text x="500.0" y="34" text-anchor="middle" font-size="22" font-weight="bold">Correction second moments along RR trajectory</text>
<line class="grid" x1="100.00" y1="70" x2="100.00" y2="530"/>
<text x="100.00" y="558" text-anchor="middle" font-size="13">30</text>
<line class="grid" x1="100" y1="530.00" x2="965" y2="530.00"/>
<text x="88" y="535.00" text-anchor="end" font-size="13">0.00901</text>
<line class="grid" x1="273.00" y1="70" x2="273.00" y2="530"/>
<text x="273.00" y="558" text-anchor="middle" font-size="13">624</text>
<line class="grid" x1="100" y1="438.00" x2="965" y2="438.00"/>
<text x="88" y="443.00" text-anchor="end" font-size="13">0.032</text>
<line class="grid" x1="446.00" y1="70" x2="446.00" y2="530"/>
<text x="446.00" y="558" text-anchor="middle" font-size="13">1218</text>
<line class="grid" x1="100" y1="346.00" x2="965" y2="346.00"/>
<text x="88" y="351.00" text-anchor="end" font-size="13">0.114</text>
<line class="grid" x1="619.00" y1="70" x2="619.00" y2="530"/>
<text x="619.00" y="558" text-anchor="middle" font-size="13">1812</text>
<line class="grid" x1="100" y1="254.00" x2="965" y2="254.00"/>
<text x="88" y="259.00" text-anchor="end" font-size="13">0.404</text>
<line class="grid" x1="792.00" y1="70" x2="792.00" y2="530"/>
<text x="792.00" y="558" text-anchor="middle" font-size="13">2406</text>
<line class="grid" x1="100" y1="162.00" x2="965" y2="162.00"/>
<text x="88" y="167.00" text-anchor="end" font-size="13">1.44</text>
<line class="grid" x1="965.00" y1="70" x2="965.00" y2="530"/>
<text x="965.00" y="558" text-anchor="middle" font-size="13">3000</text>
<line class="grid" x1="100" y1="70.00" x2="965" y2="70.00"/>
<text x="88" y="75.00" text-anchor="end" font-size="13">5.11</text>
<line class="axis" x1="100" y1="530" x2="965" y2="530"/>
<line class="axis" x1="100" y1="70" x2="100" y2="530"/>
<text x="532.5" y="596" text-anchor="middle" font-size="16">Optimizer update</text>
<text x="24" y="300.0" text-anchor="middle" font-size="16" transform="rotate(-90 24 300.0)">V_k = mean squared correction norm (log scale)</text>
<polyline class="series" points="100.00,101.72 178.64,242.97 528.13,300.26 877.63,291.86 965.00,291.91" stroke="#0072B2"/>
<circle class="point" cx="100.00" cy="101.72" r="4.5" fill="#0072B2"/>
<circle class="point" cx="178.64" cy="242.97" r="4.5" fill="#0072B2"/>
<circle class="point" cx="528.13" cy="300.26" r="4.5" fill="#0072B2"/>
<circle class="point" cx="877.63" cy="291.86" r="4.5" fill="#0072B2"/>
<circle class="point" cx="965.00" cy="291.91" r="4.5" fill="#0072B2"/>
<polyline class="series" points="100.00,475.53 178.64,424.37 528.13,412.31 877.63,397.75 965.00,397.26" stroke="#D55E00"/>
<circle class="point" cx="100.00" cy="475.53" r="4.5" fill="#D55E00"/>
<circle class="point" cx="178.64" cy="424.37" r="4.5" fill="#D55E00"/>
<circle class="point" cx="528.13" cy="412.31" r="4.5" fill="#D55E00"/>
<circle class="point" cx="877.63" cy="397.75" r="4.5" fill="#D55E00"/>
<circle class="point" cx="965.00" cy="397.26" r="4.5" fill="#D55E00"/>
<polyline class="series" points="100.00,498.28 178.64,456.06 528.13,460.97 877.63,448.95 965.00,448.27" stroke="#009E73"/>
<circle class="point" cx="100.00" cy="498.28" r="4.5" fill="#009E73"/>
<circle class="point" cx="178.64" cy="456.06" r="4.5" fill="#009E73"/>
<circle class="point" cx="528.13" cy="460.97" r="4.5" fill="#009E73"/>
<circle class="point" cx="877.63" cy="448.95" r="4.5" fill="#009E73"/>
<circle class="point" cx="965.00" cy="448.27" r="4.5" fill="#009E73"/>
<polyline class="series" points="100.00,497.73 178.64,461.98 528.13,490.82 877.63,484.57 965.00,484.01" stroke="#CC79A7"/>
<circle class="point" cx="100.00" cy="497.73" r="4.5" fill="#CC79A7"/>
<circle class="point" cx="178.64" cy="461.98" r="4.5" fill="#CC79A7"/>
<circle class="point" cx="528.13" cy="490.82" r="4.5" fill="#CC79A7"/>
<circle class="point" cx="877.63" cy="484.57" r="4.5" fill="#CC79A7"/>
<circle class="point" cx="965.00" cy="484.01" r="4.5" fill="#CC79A7"/>
<line x1="112" y1="90" x2="142" y2="90" stroke="#0072B2" stroke-width="4"/>
<text x="150" y="95" font-size="13">C=512</text>
<line x1="112" y1="113" x2="142" y2="113" stroke="#D55E00" stroke-width="4"/>
<text x="150" y="118" font-size="13">C=1024</text>
<line x1="112" y1="136" x2="142" y2="136" stroke="#009E73" stroke-width="4"/>
<text x="150" y="141" font-size="13">C=2048</text>
<line x1="112" y1="159" x2="142" y2="159" stroke="#CC79A7" stroke-width="4"/>
<text x="150" y="164" font-size="13">C=4096</text>
</svg>
