<svg xmlns="http://www.w3.org/2000/svg" width="1000" height="620" viewBox="0 0 1000 620">
<rect width="100%" height="100%" fill="white"/>
<style>text{font-family:Arial,sans-serif;fill:#222}.grid{stroke:#ddd;stroke-width:1}.axis{stroke:#222;stroke-width:1.5}.series{fill:none;stroke-width:3}.point{stroke:white;stroke-width:1.5}</style>
<text x="500.0" y="34" text-anchor="middle" font-size="22" font-weight="bold">Correction second moments along FULL trajectory</text>
<line class="grid" x1="100.00" y1="70" x2="100.00" y2="530"/>
<text x="100.00" y="558" text-anchor="middle" font-size="13">30</text>
<line class="grid" x1="100" y1="530.00" x2="965" y2="530.00"/>
<text x="88" y="535.00" text-anchor="end" font-size="13">0.00898</text>
<line class="grid" x1="273.00" y1="70" x2="273.00" y2="530"/>
<text x="273.00" y="558" text-anchor="middle" font-size="13">624</text>
<line class="grid" x1="100" y1="438.00" x2="965" y2="438.00"/>
<text x="88" y="443.00" text-anchor="end" font-size="13">0.032</text>
<line class="grid" x1="446.00" y1="70" x2="446.00" y2="530"/>
<text x="446.00" y="558" text-anchor="middle" font-size="13">1218</text>
<line class="grid" x1="100" y1="346.00" x2="965" y2="346.00"/>
<text x="88" y="351.00" text-anchor="end" font-size="13">0.114</text>
<line class="grid" x1="619.00" y1="70" x2="619.00" y2="530"/>
<text x="619.00" y="558" text-anchor="middle" font-size="13">1812</text>
<line class="grid" x1="100" y1="254.00" x2="965" y2="254.00"/>
<text x="88" y="259.00" text-anchor="end" font-size="13">0.407</text>
<line class="grid" x1="792.00" y1="70" x2="792.00" y2="530"/>
<text x="792.00" y="558" text-anchor="middle" font-size="13">2406</text>
<line class="grid" x1="100" y1="162.00" x2="965" y2="162.00"/>
<text x="88" y="167.00" text-anchor="end" font-size="13">1.45</text>
<line class="grid" x1="965.00" y1="70" x2="965.00" y2="530"/>
<text x="965.00" y="558" text-anchor="middle" font-size="13">3000</text>
<line class="grid" x1="100" y1="70.00" x2="965" y2="70.00"/>
<text x="88" y="75.00" text-anchor="end" font-size="13">5.16</text>
<line class="axis" x1="100" y1="530" x2="965" y2="530"/>
<line class="axis" x1="100" y1="70" x2="100" y2="530"/>
<text x="532.5" y="596" text-anchor="middle" font-size="16">Optimizer update</text>
<text x="24" y="300.0" text-anchor="middle" font-size="16" transform="rotate(-90 24 300.0)">V_k = mean squared correction norm (log scale)</text>
<polyline class="series" points="100.00,101.72 178.64,252.90 528.13,288.70 877.63,283.85 965.00,283.46" stroke="#0072B2"/>
<circle class="point" cx="100.00" cy="101.72" r="4.5" fill="#0072B2"/>
<circle class="point" cx="178.64" cy="252.90" r="4.5" fill="#0072B2"/>
<circle class="point" cx="528.13" cy="288.70" r="4.5" fill="#0072B2"/>
<circle class="point" cx="877.63" cy="283.85" r="4.5" fill="#0072B2"/>
<circle class="point" cx="965.00" cy="283.46" r="4.5" fill="#0072B2"/>
<polyline class="series" points="100.00,475.64 178.64,424.42 528.13,400.90 877.63,388.85 965.00,388.02" stroke="#D55E00"/>
<circle class="point" cx="100.00" cy="475.64" r="4.5" fill="#D55E00"/>
<circle class="point" cx="178.64" cy="424.42" r="4.5" fill="#D55E00"/>
<circle class="point" cx="528.13" cy="400.90" r="4.5" fill="#D55E00"/>
<circle class="point" cx="877.63" cy="388.85" r="4.5" fill="#D55E00"/>
<circle class="point" cx="965.00" cy="388.02" r="4.5" fill="#D55E00"/>
<polyline class="series" points="100.00,498.28 178.64,457.81 528.13,448.44 877.63,435.67 965.00,434.85" stroke="#009E73"/>
<circle class="point" cx="100.00" cy="498.28" r="4.5" fill="#009E73"/>
<circle class="point" cx="178.64" cy="457.81" r="4.5" fill="#009E73"/>
<circle class="point" cx="528.13" cy="448.44" r="4.5" fill="#009E73"/>
<circle class="point" cx="877.63" cy="435.67" r="4.5" fill="#009E73"/>
<circle class="point" cx="965.00" cy="434.85" r="4.5" fill="#009E73"/>
<polyline class="series" points="100.00,497.80 178.64,467.12 528.13,472.06 877.63,469.26 965.00,468.67" stroke="#CC79A7"/>
<circle class="point" cx="100.00" cy="497.80" r="4.5" fill="#CC79A7"/>
<circle class="point" cx="178.64" cy="467.12" r="4.5" fill="#CC79A7"/>
<circle class="point" cx="528.13" cy="472.06" r="4.5" fill="#CC79A7"/>
<circle class="point" cx="877.63" cy="469.26" r="4.5" fill="#CC79A7"/>
<circle class="point" cx="965.00" cy="468.67" r="4.5" fill="#CC79A7"/>
<line x1="112" y1="90" x2="142" y2="90" stroke="#0072B2" stroke-width="4"/>
<text x="150" y="95" font-size="13">C=512</text>
<line x1="112" y1="113" x2="142" y2="113" stroke="#D55E00" stroke-width="4"/>
<text x="150" y="118" font-size="13">C=1024</text>
<line x1="112" y1="136" x2="142" y2="136" stroke="#009E73" stroke-width="4"/>
<text x="150" y="141" font-size="13">C=2048</text>
<line x1="112" y1="159" x2="142" y2="159" stroke="#CC79A7" stroke-width="4"/>
<text x="150" y="164" font-size="13">C=4096</text>
</svg>
